<?xml version="1.0" standalone="no"?>
<!DOCTYPE svg PUBLIC "-//W3C//DTD SVG 20010904//EN"
 "http://www.w3.org/TR/2001/REC-SVG-20010904/DTD/svg10.dtd">
<svg version="1.0" xmlns="http://www.w3.org/2000/svg"
 width="16.000000pt" height="16.000000pt" viewBox="0 0 16.000000 16.000000"
 preserveAspectRatio="xMidYMid meet">
<metadata>
Created by potrace 1.11, written by Peter Selinger 2001-2013
</metadata>
<g transform="translate(0.000000,16.000000) scale(0.009524,-0.009524)"
fill="#000000" stroke="none">
<path d="M315 1141 c-93 -24 -193 -109 -240 -205 -35 -71 -39 -158 -9 -199 10
-14 25 -27 32 -27 7 0 10 -5 6 -12 -4 -6 -3 -8 3 -5 6 4 24 2 42 -3 22 -6 29
-5 25 2 -4 6 -1 8 7 6 8 -3 13 -11 11 -17 -1 -7 2 -10 8 -6 6 3 8 10 5 15 -3
4 2 10 9 13 8 3 17 1 20 -6 2 -7 5 -4 5 6 1 9 6 17 12 17 5 0 7 -6 4 -12 -4
-7 3 -2 15 12 12 14 19 19 15 13 -4 -9 -1 -11 9 -7 9 3 14 10 11 14 -3 4 2 11
11 14 15 6 15 -15 -2 -75 -2 -9 2 -22 11 -29 8 -7 13 -15 10 -19 -2 -4 9 -5
26 -3 17 3 29 10 29 19 0 10 6 13 16 9 14 -5 15 -4 5 8 -7 8 -10 20 -6 26 3 5
1 10 -6 10 -8 0 -8 4 1 15 7 8 9 15 4 15 -5 0 -2 5 6 10 10 6 11 10 3 10 -7 0
-13 7 -13 16 0 8 4 13 9 10 12 -8 24 26 13 33 -12 8 -8 32 11 70 13 26 13 32
1 50 -22 31 -74 16 -74 -22 0 -42 -36 -84 -101 -116 -34 -17 -72 -31 -84 -31
-31 0 -59 24 -52 43 3 9 2 19 -3 22 -12 7 -1 36 19 52 12 9 12 12 3 13 -7 0
-11 4 -7 10 3 5 13 7 23 4 12 -4 13 -3 4 3 -10 8 -10 15 2 37 9 18 16 23 19
14 3 -8 6 -6 6 6 1 28 79 97 94 84 1 -2 13 5 27 15 31 22 44 22 36 0 -5 -15
-4 -15 9 1 8 11 15 14 15 7 0 -16 20 -35 40 -38 16 -3 40 39 40 68 0 9 -6 21
-13 27 -18 15 -86 22 -122 13z"/>
<path d="M980 1098 c-13 -31 -40 -199 -40 -246 0 -39 30 -114 49 -126 6 -4 8
-12 5 -18 -4 -7 -2 -8 4 -4 7 4 12 2 12 -3 0 -6 3 -10 8 -10 19 3 33 -2 28
-10 -4 -5 3 -7 14 -4 14 4 19 1 17 -8 -2 -8 -2 -11 0 -6 3 4 10 4 15 1 6 -4 8
-2 5 3 -4 7 7 10 31 9 22 -2 51 6 71 18 25 14 32 16 27 6 -5 -8 6 1 23 20 17
19 31 40 32 45 0 6 5 1 10 -10 8 -18 9 -18 7 5 -2 35 12 81 23 74 5 -3 9 -1 9
5 0 5 -4 11 -10 13 -6 2 -4 14 5 31 8 15 10 25 4 21 -12 -7 3 131 15 143 2 3
0 18 -6 34 -12 34 -47 40 -65 11 -6 -10 -16 -70 -23 -133 -7 -63 -20 -132 -30
-155 -15 -35 -24 -42 -61 -52 -24 -6 -56 -8 -72 -5 -29 6 -71 49 -61 64 3 5 0
9 -6 9 -7 0 -8 6 0 19 13 25 13 41 0 21 -8 -11 -10 -6 -7 20 3 22 9 34 17 32
10 -2 11 0 2 11 -14 17 -5 86 15 108 12 15 12 22 -1 53 -18 42 -51 49 -66 14z"/>
<path d="M572 1068 c-21 -21 -13 -47 19 -64 21 -10 29 -11 23 -3 -5 9 -2 11 9
6 9 -3 19 -1 23 5 4 7 3 8 -5 4 -8 -6 -10 -1 -6 17 9 35 -37 61 -63 35z"/>
<path d="M230 1009 c0 -5 5 -7 10 -4 6 3 10 8 10 11 0 2 -4 4 -10 4 -5 0 -10
-5 -10 -11z"/>
<path d="M215 981 c-3 -5 -2 -12 3 -15 5 -3 9 1 9 9 0 17 -3 19 -12 6z"/>
<path d="M1417 957 c-11 -9 -17 -40 -21 -112 -3 -55 -15 -143 -25 -195 -20
-99 -16 -120 20 -120 10 0 20 8 23 18 5 15 17 109 19 138 0 6 9 9 19 6 10 -2
15 -9 11 -16 -4 -6 1 -5 10 3 13 11 20 11 32 1 15 -13 35 -6 35 13 0 7 -4 6
-10 -3 -5 -8 -13 -11 -17 -6 -4 5 -2 11 5 13 7 3 25 16 41 29 16 13 31 20 35
16 4 -4 6 -2 5 3 -2 6 3 20 10 33 11 20 15 21 28 10 15 -11 15 -11 6 6 -13 23
-5 58 11 49 6 -4 5 1 -3 10 -8 10 -9 17 -3 17 14 0 -4 54 -23 70 -37 31 -77
20 -138 -39 -36 -34 -38 -34 -28 -10 18 49 -9 92 -42 66z m161 -65 c33 -21
-46 -152 -92 -152 -23 0 -31 26 -16 58 12 26 13 26 21 7 7 -18 8 -17 6 5 -1
15 9 39 23 58 26 33 36 37 58 24z"/>
<path d="M1520 850 c-6 -11 -8 -20 -6 -20 3 0 10 9 16 20 6 11 8 20 6 20 -3 0
-10 -9 -16 -20z"/>
<path d="M787 940 c-127 -38 -213 -240 -102 -240 13 0 26 -6 28 -12 4 -8 6 -7
6 3 1 9 15 22 31 29 17 7 35 20 40 29 8 14 9 14 10 1 0 -9 -6 -22 -12 -29 -11
-11 -10 -12 0 -7 17 10 7 -36 -17 -79 -23 -40 -59 -43 -120 -11 -27 14 -51 22
-55 19 -12 -12 -6 -33 13 -50 11 -9 17 -21 14 -26 -3 -6 -1 -7 4 -4 12 7 66
-17 58 -25 -7 -6 28 -3 40 4 6 3 22 5 37 4 14 -1 26 1 26 4 -2 20 5 29 22 35
11 4 18 11 15 16 -4 5 2 9 12 10 10 0 13 3 6 5 -7 3 -9 12 -6 20 4 12 8 12 21
2 15 -12 15 -11 0 10 -14 21 -14 48 3 102 0 3 6 4 12 2 6 -2 5 3 -2 12 -12 14
-7 76 8 101 13 23 9 46 -11 65 -23 21 -37 23 -81 10z m33 -67 c0 -59 -117
-154 -125 -101 -4 22 24 60 37 52 6 -4 8 -3 5 3 -4 6 1 19 9 29 9 10 13 14 10
8 -3 -6 1 -11 9 -11 8 0 12 4 9 9 -8 13 6 28 27 28 11 0 19 -7 19 -17z"/>
<path d="M790 870 c0 -5 5 -10 11 -10 5 0 7 5 4 10 -3 6 -8 10 -11 10 -2 0 -4
-4 -4 -10z"/>
<path d="M535 928 c-9 -30 -28 -166 -26 -193 1 -16 9 -37 17 -46 15 -16 17
-16 33 -1 15 15 19 32 11 52 -1 3 -1 10 0 15 1 6 2 27 1 48 0 21 4 37 10 37 6
0 9 7 5 15 -3 8 2 21 10 30 9 8 11 15 5 15 -6 0 -11 9 -11 20 0 15 -7 20 -25
20 -14 0 -27 -6 -30 -12z"/>
<path d="M425 840 c-3 -6 1 -7 9 -4 18 7 21 14 7 14 -6 0 -13 -4 -16 -10z"/>
<path d="M1307 779 c7 -7 15 -10 18 -7 3 3 -2 9 -12 12 -14 6 -15 5 -6 -5z"/>
<path d="M1617 773 c-10 -9 -9 -23 1 -23 5 0 9 7 9 15 0 17 -1 18 -10 8z"/>
<path d="M1565 720 c-3 -6 1 -7 9 -4 18 7 21 14 7 14 -6 0 -13 -4 -16 -10z"/>
<path d="M744 704 c-18 -14 -18 -15 4 -4 12 6 22 13 22 15 0 8 -5 6 -26 -11z"/>
<path d="M1195 679 c-4 -6 -4 -13 -1 -16 3 -4 6 -1 6 6 0 7 5 9 12 5 7 -4 8
-3 4 4 -9 15 -13 15 -21 1z"/>
<path d="M756 518 c3 -5 10 -6 15 -3 13 9 11 12 -6 12 -8 0 -12 -4 -9 -9z"/>
</g>
</svg>
